<?xml version="1.0" standalone="no"?><!DOCTYPE svg PUBLIC "-//W3C//DTD SVG 1.1//EN" "http://www.w3.org/Graphics/SVG/1.1/DTD/svg11.dtd"><svg t="1731399688496" class="icon" viewBox="0 0 1024 1024" version="1.1" xmlns="http://www.w3.org/2000/svg" p-id="4350" xmlns:xlink="http://www.w3.org/1999/xlink" width="100" height="100"><path d="M408.576 485.376h-204.8c-42.496 0-76.8-34.304-76.8-76.8v-204.8c0-42.496 34.304-76.8 76.8-76.8h204.8c42.496 0 76.8 34.304 76.8 76.8v204.8c0 42.496-34.304 76.8-76.8 76.8z m-204.8-307.2c-14.336 0-25.6 11.264-25.6 25.6v204.8c0 14.336 11.264 25.6 25.6 25.6h204.8c14.336 0 25.6-11.264 25.6-25.6v-204.8c0-14.336-11.264-25.6-25.6-25.6h-204.8zM819.2 485.376h-204.8c-42.496 0-76.8-34.304-76.8-76.8v-204.8c0-42.496 34.304-76.8 76.8-76.8h204.8c42.496 0 76.8 34.304 76.8 76.8v204.8c0 42.496-34.304 76.8-76.8 76.8z m-204.8-307.2c-14.336 0-25.6 11.264-25.6 25.6v204.8c0 14.336 11.264 25.6 25.6 25.6h204.8c14.336 0 25.6-11.264 25.6-25.6v-204.8c0-14.336-11.264-25.6-25.6-25.6h-204.8zM408.576 896h-204.8c-42.496 0-76.8-34.304-76.8-76.8v-204.8c0-42.496 34.304-76.8 76.8-76.8h204.8c42.496 0 76.8 34.304 76.8 76.8v204.8c0 42.496-34.304 76.8-76.8 76.8z m-204.8-307.2c-14.336 0-25.6 11.264-25.6 25.6v204.8c0 14.336 11.264 25.6 25.6 25.6h204.8c14.336 0 25.6-11.264 25.6-25.6v-204.8c0-14.336-11.264-25.6-25.6-25.6h-204.8zM819.2 896h-204.8c-42.496 0-76.8-34.304-76.8-76.8v-204.8c0-42.496 34.304-76.8 76.8-76.8h204.8c42.496 0 76.8 34.304 76.8 76.8v204.8c0 42.496-34.304 76.8-76.8 76.8z m-204.8-307.2c-14.336 0-25.6 11.264-25.6 25.6v204.8c0 14.336 11.264 25.6 25.6 25.6h204.8c14.336 0 25.6-11.264 25.6-25.6v-204.8c0-14.336-11.264-25.6-25.6-25.6h-204.8z" p-id="4351"></path></svg>